<svg xmlns="http://www.w3.org/2000/svg" xmlns:xlink="http://www.w3.org/1999/xlink" viewBox="0 0 26 26.05"><defs><style>.cls-1,.cls-2{fill-rule:evenodd;}.cls-1{fill:url(#linear-gradient);}.cls-2{fill:#fff;}</style><linearGradient id="linear-gradient" x1="13" x2="13" y2="26.05" gradientUnits="userSpaceOnUse"><stop offset="0" stop-color="#19aeff"/><stop offset="1" stop-color="#0065e7"/></linearGradient></defs><g id="Layer_2" data-name="Layer 2"><g id="Layer_1-2" data-name="Layer 1"><path class="cls-1" d="M5.23,0H20.77A5.25,5.25,0,0,1,26,5.23V20.82a5.23,5.23,0,0,1-5.23,5.23H5.23A5.23,5.23,0,0,1,0,20.82V5.23A5.25,5.25,0,0,1,5.23,0Z"/><path class="cls-2" d="M10.2,22.42h3.51v-8.1H16.3l.52-3.27H13.71V8.58a1.58,1.58,0,0,1,1.71-1.44h1.52V4.43l-2.71-.12c-2.59-.16-4,1.88-4,4.31v2.43H7.25v3.27H10.2Z"/></g></g></svg>