<svg xmlns="http://www.w3.org/2000/svg" viewBox="0 0 26 26"><defs><style>.cls-1{fill:#0b66c3;}.cls-1,.cls-2{fill-rule:evenodd;}.cls-2{fill:#fff;}</style></defs><g id="Layer_2" data-name="Layer 2"><g id="Layer_1-2" data-name="Layer 1"><path class="cls-1" d="M5.23,0H20.77A5.23,5.23,0,0,1,26,5.23V20.77A5.23,5.23,0,0,1,20.77,26H5.23A5.23,5.23,0,0,1,0,20.77V5.23A5.23,5.23,0,0,1,5.23,0Z"/><path class="cls-2" d="M5.81,10.39H8.72v9.75H5.81ZM7.25,5.45A1.76,1.76,0,1,1,5.53,7.2,1.72,1.72,0,0,1,7.25,5.45Zm3.19,4.94h2.87v1.36a3.32,3.32,0,0,1,2.76-1.47h.78a3.32,3.32,0,0,1,3.3,3.3v6.56H17.28v-.89h0V14.87h0a1.9,1.9,0,0,0-1.9-2h0a2,2,0,0,0-2.07,2h0v5.27H10.44Z"/></g></g></svg>