<svg xmlns="http://www.w3.org/2000/svg" xmlns:xlink="http://www.w3.org/1999/xlink" viewBox="0 0 26 26.05"><defs><style>.cls-1,.cls-2{fill-rule:evenodd;}.cls-1{fill:url(#linear-gradient);}.cls-2{fill:#fff;}</style><linearGradient id="linear-gradient" x1="-132.6" y1="-47.98" x2="-104.41" y2="-22.6" gradientTransform="translate(114.31 43.2) scale(0.85)" gradientUnits="userSpaceOnUse"><stop offset="0" stop-color="#0496fb"/><stop offset="0.14" stop-color="#3f72ff"/><stop offset="0.28" stop-color="#784aff"/><stop offset="0.42" stop-color="#b038ee"/><stop offset="0.57" stop-color="#cd40be"/><stop offset="0.72" stop-color="#ff415a"/><stop offset="0.86" stop-color="#f7941e"/><stop offset="0.98" stop-color="#ffe800"/></linearGradient></defs><g id="Layer_2" data-name="Layer 2"><g id="Layer_1-2" data-name="Layer 1"><path class="cls-1" d="M5.23,0H20.77A5.25,5.25,0,0,1,26,5.23V20.82a5.23,5.23,0,0,1-5.23,5.23H5.23A5.23,5.23,0,0,1,0,20.82V5.23A5.25,5.25,0,0,1,5.23,0Z"/><path class="cls-2" d="M9.08,4.53h7.84a4.61,4.61,0,0,1,4.59,4.59v7.8a4.62,4.62,0,0,1-4.59,4.6H9.08a4.62,4.62,0,0,1-4.59-4.6V9.12A4.61,4.61,0,0,1,9.08,4.53Zm8.49,3h0a1,1,0,0,1,1,1h0a1,1,0,0,1-1,1h0a1,1,0,0,1-1-1h0a1,1,0,0,1,1-1ZM13,8.39h0A4.68,4.68,0,0,1,17.65,13h0A4.66,4.66,0,0,1,13,17.66h0A4.63,4.63,0,0,1,8.39,13h0A4.64,4.64,0,0,1,13,8.39ZM13,10h0a3.07,3.07,0,0,1,3.05,3h0A3.08,3.08,0,0,1,13,16.11h0A3.08,3.08,0,0,1,9.93,13h0A3.07,3.07,0,0,1,13,10ZM9.12,6h7.76a3.17,3.17,0,0,1,3.17,3.17v7.72a3.17,3.17,0,0,1-3.17,3.17H9.12A3.17,3.17,0,0,1,6,16.88V9.16A3.17,3.17,0,0,1,9.12,6Z"/></g></g></svg>