<svg xmlns="http://www.w3.org/2000/svg" viewBox="0 0 26 26.05"><defs><style>.cls-1{fill:#1aa2f8;}.cls-1,.cls-2{fill-rule:evenodd;}.cls-2{fill:#fff;}</style></defs><g id="Layer_2" data-name="Layer 2"><g id="Layer_1-2" data-name="Layer 1"><path class="cls-1" d="M5.23,0H20.82A5.24,5.24,0,0,1,26,5.23V20.82a5.22,5.22,0,0,1-5.18,5.23H5.23A5.23,5.23,0,0,1,0,20.82V5.23A5.25,5.25,0,0,1,5.23,0Z"/><path class="cls-2" d="M13.16,10.55A3.64,3.64,0,0,1,19.4,7.38a9.23,9.23,0,0,0,2.15-1,3.93,3.93,0,0,1-1.6,2,7.1,7.1,0,0,0,2-.55,3.81,3.81,0,0,1-1.7,1.69c.6,8.3-8.34,13.35-15.59,9.22,0,0,3.58.18,5.09-1.56a3.47,3.47,0,0,1-3.3-2.47,2.2,2.2,0,0,0,1.65-.1,3.58,3.58,0,0,1-2.8-3.48A2.28,2.28,0,0,0,7,11.6,3.52,3.52,0,0,1,5.78,6.83s3,3.85,7.38,3.72Z"/></g></g></svg>