<svg xmlns="http://www.w3.org/2000/svg" viewBox="0 0 26 26"><defs><style>.cls-1{fill:#fe0000;}.cls-1,.cls-2{fill-rule:evenodd;}.cls-2{fill:#fff;}</style></defs><g id="Layer_2" data-name="Layer 2"><g id="Layer_1-2" data-name="Layer 1"><path class="cls-1" d="M5.23,0H20.82A5.21,5.21,0,0,1,26,5.18V20.77A5.22,5.22,0,0,1,20.82,26H5.23A5.23,5.23,0,0,1,0,20.77V5.18A5.22,5.22,0,0,1,5.23,0Z"/><path class="cls-2" d="M8,7.24c1.63-.13,3.56-.2,5-.2h0c1.47,0,3.36.07,5,.2C20,7.4,21,7.73,21.21,9.65A24.55,24.55,0,0,1,21.4,13h0a24,24,0,0,1-.19,3.32C21,18.26,20,18.55,18,18.72c-1.66.16-3.55.19-5,.19h0c-1.46,0-3.39,0-5-.19-1.92-.17-2.93-.46-3.19-2.42A30.4,30.4,0,0,1,4.64,13h0a31.17,31.17,0,0,1,.17-3.33C5.07,7.73,6.08,7.4,8,7.24Z"/><polygon class="cls-1" points="11.33 10.47 15.7 12.98 11.33 15.52 11.33 10.47"/></g></g></svg>